<?xml version="1.0" encoding="iso-8859-1"?>
<!-- Generator: Adobe Illustrator 19.0.0, SVG Export Plug-In . SVG Version: 6.00 Build 0)  -->
<svg version="1.1" id="Layer_1" xmlns="http://www.w3.org/2000/svg" xmlns:xlink="http://www.w3.org/1999/xlink" x="0px" y="0px"
	 viewBox="0 0 512 512" style="enable-background:new 0 0 512 512;" xml:space="preserve">
<g>
	<path style="fill:#A3875E;" d="M374.028,323.095H260.882V77.695V12.817H60.238v64.878v61.405v60.174v240.505H478.92v-11.791
		C478.92,370.055,431.959,323.095,374.028,323.095z"/>
	<rect x="60.238" y="439.778" style="fill:#A3875E;" width="418.682" height="59.405"/>
</g>
<path style="fill:#F0DF9E;" d="M60.238,139.099V77.695h200.645v245.401h113.146c57.931,0,104.892,46.96,104.892,104.892v11.791
	H60.238V199.273V139.099z"/>
<path d="M478.92,452.595c-7.077,0-12.817-5.739-12.817-12.817v-11.79c0-50.771-41.306-92.076-92.075-92.076H260.883
	c-7.077,0-12.817-5.739-12.817-12.817V25.633H73.054v414.145c0,7.077-5.739,12.817-12.817,12.817s-12.817-5.739-12.817-12.817
	V12.817C47.421,5.739,53.16,0,60.238,0h200.645c7.077,0,12.817,5.739,12.817,12.817v297.462h100.329
	c64.905,0,117.708,52.803,117.708,117.71v11.79C491.736,446.855,485.997,452.595,478.92,452.595z"/>
<path d="M478.92,512H60.238c-7.077,0-12.817-5.739-12.817-12.817v-59.405c0-7.077,5.739-12.817,12.817-12.817H478.92
	c7.077,0,12.817,5.739,12.817,12.817v59.407C491.736,506.262,485.997,512,478.92,512z M73.054,486.367h393.049v-33.772H73.054
	V486.367z"/>
<path d="M106.352,151.916H60.238c-7.077,0-12.817-5.739-12.817-12.817s5.739-12.817,12.817-12.817h46.114
	c7.077,0,12.817,5.739,12.817,12.817S113.431,151.916,106.352,151.916z"/>
<path d="M106.352,212.09H60.238c-7.077,0-12.817-5.739-12.817-12.817s5.739-12.817,12.817-12.817h46.114
	c7.077,0,12.817,5.739,12.817,12.817S113.431,212.09,106.352,212.09z"/>
<path d="M288.041,90.511h-27.159c-7.077,0-12.817-5.739-12.817-12.817c0-7.077,5.739-12.817,12.817-12.817h27.159
	c7.077,0,12.817,5.739,12.817,12.817S295.12,90.511,288.041,90.511z"/>
<path d="M222.89,90.511h-4.286c-7.077,0-12.817-5.739-12.817-12.817c0-7.077,5.739-12.817,12.817-12.817h4.286
	c7.077,0,12.817,5.739,12.817,12.817S229.969,90.511,222.89,90.511z"/>
<path d="M177.497,90.511H33.08c-7.077,0-12.817-5.739-12.817-12.817c0-7.077,5.739-12.817,12.817-12.817h144.418
	c7.077,0,12.817,5.739,12.817,12.817S184.576,90.511,177.497,90.511z"/>
<g>
</g>
<g>
</g>
<g>
</g>
<g>
</g>
<g>
</g>
<g>
</g>
<g>
</g>
<g>
</g>
<g>
</g>
<g>
</g>
<g>
</g>
<g>
</g>
<g>
</g>
<g>
</g>
<g>
</g>
</svg>
